<svg preserveAspectRatio="none" width="100%" height="100%" overflow="visible" style="display: block;" viewBox="0 0 29 29" fill="none" xmlns="http://www.w3.org/2000/svg">
<path id="Vector" fill-rule="evenodd" clip-rule="evenodd" d="M2.13334 14.1867C2.13334 13.5749 2.17891 12.9738 2.26685 12.3865L18.5894 2.96272C19.228 3.21343 19.8401 3.51709 20.4201 3.86825L6.23077 12.0605C6.15832 12.1 6.09033 12.1492 6.02889 12.2078C5.84773 12.38 5.74394 12.6142 5.73193 12.8568C5.72504 12.9959 5.74834 13.1378 5.80455 13.2723C5.84383 13.3669 5.8985 13.4559 5.96792 13.5352C6.02258 13.5978 6.08432 13.6521 6.15124 13.6975L13.8141 19.1747L6.44767 23.4277C3.81027 21.2167 2.13334 17.8975 2.13334 14.1867ZM16.0394 20.1069C16.0573 20.0973 16.0749 20.0873 16.0923 20.0764L19.1807 18.2934C19.1938 18.2862 19.2067 18.2787 19.2196 18.2709L22.3149 16.4838C22.4331 16.4192 22.5396 16.3286 22.6249 16.2133C22.9406 15.7874 22.8515 15.1861 22.4257 14.8704L14.886 9.28041L22.1144 5.1071C24.6428 7.31659 26.24 10.5651 26.24 14.1867C26.24 14.9024 26.1775 15.6035 26.0581 16.2849L10.0667 25.5175C9.41099 25.279 8.78183 24.9852 8.18484 24.6418L16.0394 20.1069ZM15.6406 18.1202L8.46211 12.9892L9.93963 12.1362L16.9729 17.351L15.6406 18.1202ZM11.7521 11.0898L13.0736 10.3268L20.1069 15.5415L18.7853 16.3046L11.7521 11.0898ZM15.9612 2.26305L2.97099 9.76295C4.73479 5.29473 9.09155 2.13334 14.1867 2.13334C14.7896 2.13334 15.3821 2.17759 15.9612 2.26305ZM12.7933 26.1603C13.2505 26.213 13.7154 26.24 14.1867 26.24C19.1459 26.24 23.4055 23.2451 25.2557 18.9652L12.7933 26.1603ZM14.1867 0C6.35158 0 0 6.35158 0 14.1867C0 22.0218 6.35158 28.3734 14.1867 28.3734C22.0218 28.3734 28.3734 22.0218 28.3734 14.1867C28.3734 6.35158 22.0218 0 14.1867 0Z" fill="var(--fill-0, #2F583F)"/>
</svg>
