<svg viewBox="0 0 400 400" xmlns="http://www.w3.org/2000/svg">
  <rect width="400" height="400" fill="#F7F7F7"/>

  <!-- Background circles for decoration -->
  <circle cx="350" cy="50" r="30" fill="#FF5A5F" opacity="0.1"/>
  <circle cx="50" cy="350" r="40" fill="#00A699" opacity="0.1"/>

  <!-- Main illustration - simplified job posting concept -->
  <g transform="translate(200, 200)">
    <!-- Document/Resume -->
    <rect x="-60" y="-80" width="120" height="160" rx="8" fill="#FFFFFF" stroke="#484848" stroke-width="2"/>

    <!-- Lines representing text -->
    <rect x="-40" y="-60" width="80" height="8" rx="4" fill="#E0E0E0"/>
    <rect x="-40" y="-40" width="60" height="8" rx="4" fill="#E0E0E0"/>
    <rect x="-40" y="-20" width="70" height="8" rx="4" fill="#E0E0E0"/>

    <!-- Briefcase icon -->
    <g transform="translate(0, 20)">
      <rect x="-25" y="5" width="50" height="35" rx="4" fill="#FF5A5F"/>
      <rect x="-15" y="-5" width="30" height="15" rx="3" fill="none" stroke="#FF5A5F" stroke-width="3"/>
      <rect x="-8" y="-2" width="16" height="10" fill="#FF5A5F"/>
    </g>

    <!-- Checkmark -->
    <circle cx="40" cy="-40" r="15" fill="#00A699"/>
    <path d="M 33 -40 L 38 -35 L 47 -44" stroke="white" stroke-width="3" stroke-linecap="round" stroke-linejoin="round" fill="none"/>
  </g>

  <!-- Small decorative elements -->
  <rect x="60" y="100" width="20" height="20" rx="4" fill="#FFB400" opacity="0.3" transform="rotate(45 70 110)"/>
  <rect x="320" y="280" width="15" height="15" rx="3" fill="#00A699" opacity="0.3" transform="rotate(30 327.5 287.5)"/>

  <!-- Stars/sparkles -->
  <g transform="translate(100, 80)">
    <path d="M 0 -8 L 2 -2 L 8 0 L 2 2 L 0 8 L -2 2 L -8 0 L -2 -2 Z" fill="#FFB400" opacity="0.5"/>
  </g>
  <g transform="translate(300, 320)">
    <path d="M 0 -6 L 1.5 -1.5 L 6 0 L 1.5 1.5 L 0 6 L -1.5 1.5 L -6 0 L -1.5 -1.5 Z" fill="#FF5A5F" opacity="0.4"/>
  </g>
</svg>